<?xml version="1.0" encoding="UTF-8" standalone="no"?>
<!-- Created with Inkscape (http://www.inkscape.org/) -->

<svg
   width="156.65086mm"
   height="117.01937mm"
   viewBox="0 0 156.65087 117.01937"
   version="1.1"
   id="svg1"
   xmlns="http://www.w3.org/2000/svg"
   xmlns:svg="http://www.w3.org/2000/svg">
  <defs
     id="defs1" />
  <g
     id="layer2"
     transform="translate(-0.49440441,-15.013622)">
    <rect
       style="fill:#000000;fill-opacity:1;stroke:#000000;stroke-width:1.01259;stroke-linecap:round;stroke-linejoin:round;stroke-opacity:1;paint-order:stroke fill markers"
       id="rect1-3"
       width="155.50078"
       height="155.50078"
       x="30.487883"
       y="26.251554"
       transform="matrix(1.0008785,0,0,0.74766374,-29.513522,-4.2351751)" />
  </g>
  <g
     id="layer1"
     transform="translate(-30.214629,-43.111148)">
    <path
       d="m 57.466594,110.04709 q -7.546321,0 -12.68777,-2.65365 -5.141449,-2.65365 -8.458513,-7.04876 l 5.970715,-5.721937 q 3.317064,3.980477 7.048761,5.887787 3.731697,1.82439 8.458513,1.82439 5.473156,0 8.375586,-2.487801 2.985358,-2.487798 2.985358,-7.131687 0,-3.731697 -2.156092,-5.721936 -2.156091,-2.073164 -7.380467,-2.985357 L 53.320264,83.01302 q -4.14633,-0.663413 -6.965834,-2.156092 -2.819505,-1.575605 -4.560963,-3.64877 -1.741459,-2.156092 -2.570725,-4.726816 -0.746339,-2.653651 -0.746339,-5.556082 0,-8.209733 5.307302,-12.43899 5.307302,-4.312183 14.595081,-4.312183 6.882908,0 11.692651,2.239018 4.892669,2.156092 7.878026,6.136569 l -5.804862,5.804861 q -2.404871,-2.902431 -5.721935,-4.643889 -3.234137,-1.824385 -8.04388,-1.824385 -5.141449,0 -7.878026,2.239018 -2.653652,2.156091 -2.653652,6.385348 0,3.565844 2.073165,5.639009 2.156092,1.990238 7.546321,2.90243 l 6.136568,1.078046 q 7.7951,1.409752 11.360944,5.721935 3.565843,4.229257 3.565843,10.365825 0,3.980477 -1.409752,7.297541 -1.326825,3.317067 -4.063403,5.639007 -2.653651,2.32195 -6.634128,3.64877 -3.89755,1.2439 -8.956072,1.2439 z M 89.725071,51.169206 h 19.985309 q 7.87803,0 12.19021,4.063404 4.39511,4.063403 4.39511,11.112164 0,5.058522 -2.4878,8.04388 -2.4878,2.985357 -6.71705,4.229256 v 0.414633 q 5.05852,1.160972 8.1268,4.478036 3.06829,3.234138 3.06829,9.204853 0,3.565843 -1.16097,6.551201 -1.16098,2.985357 -3.31707,5.224377 -2.15609,2.15609 -5.22437,3.39999 -2.98536,1.16097 -6.63413,1.16097 H 89.725071 Z m 19.404819,50.751074 q 4.64389,0 7.13169,-1.90731 2.4878,-1.907309 2.4878,-6.136566 v -2.985357 q 0,-4.229257 -2.4878,-6.136569 -2.4878,-1.907311 -7.13169,-1.907311 H 98.846996 v 19.073113 z m -1.32682,-25.873094 q 4.39511,0 6.63413,-1.658532 2.32194,-1.741459 2.32194,-5.721936 v -2.985357 q 0,-3.980477 -2.32194,-5.639009 -2.23902,-1.741458 -6.63413,-1.741458 h -8.956074 v 17.746292 z m 49.67306,33.999904 q -5.47315,0 -9.53656,-1.99024 -3.98047,-2.07316 -6.63413,-5.88779 -2.57072,-3.81462 -3.81462,-9.370702 -1.2439,-5.556082 -1.2439,-12.687769 0,-7.048761 1.2439,-12.604843 1.2439,-5.639009 3.81462,-9.453632 2.65366,-3.814624 6.63413,-5.804862 4.06341,-2.073165 9.53656,-2.073165 5.47316,0 9.45363,2.073165 4.06341,1.990238 6.63413,5.804862 2.65365,3.814623 3.89755,9.453632 1.2439,5.556082 1.2439,12.604843 0,7.131687 -1.2439,12.687769 -1.2439,5.556082 -3.89755,9.370702 -2.57072,3.81463 -6.63413,5.88779 -3.98047,1.99024 -9.45363,1.99024 z m 0,-7.71217 q 6.2195,0 8.79022,-4.643892 2.57073,-4.726816 2.57073,-12.770696 V 75.21792 q 0,-7.960954 -2.57073,-12.604843 -2.57072,-4.726816 -8.79022,-4.726816 -6.21949,0 -8.79022,4.726816 -2.57072,4.643889 -2.57072,12.604843 v 9.785338 q 0,7.960954 2.57072,12.68777 2.57073,4.643892 8.79022,4.643892 z"
       id="text1"
       style="fill:#c0a080;stroke-width:7.97853"
       aria-label="SBO" />
    <path
       style="fill:#ffffff;stroke-width:0.154755"
       d="m 48.205256,150.91736 q -2.764745,0 -4.074362,-1.45513 -1.309616,-1.50363 -1.309616,-3.97735 0,-0.53355 0.09701,-1.21261 0.09701,-0.67906 0.242521,-1.55213 l 2.085685,-12.56262 h -6.645089 l 0.824573,-4.85043 h 4.316883 q 1.455129,0 2.182694,-0.58205 0.776068,-0.58205 1.01859,-2.13419 l 1.01859,-6.11154 h 5.675003 l -1.455129,8.82778 h 9.943381 l -0.824573,4.85043 h -9.943381 l -2.522224,15.32736 0.970086,0.38804 8.536757,-6.35407 3.007267,3.54082 -3.686327,2.91025 q -1.600642,1.26112 -2.861754,2.2312 -1.261111,0.92158 -2.37671,1.55214 -1.067095,0.58205 -2.085685,0.87308 -1.018591,0.29102 -2.134189,0.29102 z m 29.054093,0 q -2.473719,0 -4.462395,-0.72756 -1.940172,-0.77607 -3.298292,-2.18269 -1.309616,-1.40663 -2.037181,-3.39531 -0.67906,-1.98867 -0.67906,-4.41389 0,-3.58931 1.01859,-6.45107 1.01859,-2.86175 2.861754,-4.85043 1.843163,-2.03718 4.365387,-3.10427 2.570728,-1.0671 5.626498,-1.0671 2.47372,0 4.413892,0.77607 1.988676,0.72757 3.298292,2.13419 1.35812,1.40662 2.037181,3.3953 0.727564,1.98868 0.727564,4.41389 0,3.58932 -1.01859,6.45107 -1.018591,2.86176 -2.861754,4.89894 -1.843163,1.98867 -4.413891,3.05577 -2.522224,1.06709 -5.577995,1.06709 z m 0.436539,-4.70491 q 2.716241,0 4.316883,-1.60065 1.649146,-1.64914 2.182693,-4.65641 l 0.582052,-3.4438 q 0.09701,-0.58205 0.145513,-1.16411 0.09701,-0.58205 0.09701,-1.01859 0,-2.47372 -1.309616,-3.68632 -1.261111,-1.21261 -3.492309,-1.21261 -2.716241,0 -4.365387,1.64915 -1.600642,1.60064 -2.134189,4.6079 l -0.582052,3.44381 q -0.09701,0.58205 -0.194017,1.1641 -0.0485,0.58205 -0.0485,1.01859 0,2.47372 1.261111,3.68633 1.309616,1.21261 3.540814,1.21261 z m 28.666062,4.70491 q -2.47372,0 -4.4624,-0.72756 -1.94017,-0.77607 -3.29829,-2.18269 -1.309616,-1.40663 -2.037181,-3.39531 -0.67906,-1.98867 -0.67906,-4.41389 0,-3.58931 1.01859,-6.45107 1.018591,-2.86175 2.861754,-4.85043 1.843167,-2.03718 4.365387,-3.10427 2.57073,-1.0671 5.6265,-1.0671 2.47372,0 4.41389,0.77607 1.98868,0.72757 3.29829,2.13419 1.35812,1.40662 2.03718,3.3953 0.72757,1.98868 0.72757,4.41389 0,3.58932 -1.01859,6.45107 -1.01859,2.86176 -2.86176,4.89894 -1.84316,1.98867 -4.41389,3.05577 -2.52222,1.06709 -5.57799,1.06709 z m 0.43654,-4.70491 q 2.71624,0 4.31688,-1.60065 1.64915,-1.64914 2.18269,-4.65641 l 0.58205,-3.4438 q 0.097,-0.58205 0.14552,-1.16411 0.097,-0.58205 0.097,-1.01859 0,-2.47372 -1.30962,-3.68632 -1.26111,-1.21261 -3.49231,-1.21261 -2.71624,0 -4.36539,1.64915 -1.60064,1.60064 -2.13419,4.6079 l -0.58205,3.44381 q -0.097,0.58205 -0.19401,1.1641 -0.0485,0.58205 -0.0485,1.01859 0,2.47372 1.26111,3.68633 1.30962,1.21261 3.54082,1.21261 z m 28.61755,4.70491 q -2.71624,0 -3.97735,-1.40662 -1.26111,-1.40663 -1.26111,-3.73483 0,-0.67906 0.0485,-1.35812 0.097,-0.67906 0.33953,-1.79466 l 4.36539,-23.33057 h -7.8092 l 0.82458,-4.85043 h 14.01774 l -5.91752,31.33378 0.87307,0.29102 7.71219,-7.37265 3.3953,3.05577 -3.58932,3.73483 q -2.76475,2.91026 -4.80193,4.17137 -2.03718,1.26111 -4.21987,1.26111 z m 28.95709,0 q -3.73483,0 -6.45107,-1.1156 -2.71625,-1.11559 -4.12287,-3.15277 l 3.63782,-3.39531 q 1.16411,1.55214 3.05577,2.37671 1.89167,0.82458 4.31689,0.82458 2.52222,0 3.97735,-0.87308 1.45513,-0.87308 1.45513,-2.52222 0,-1.26111 -0.82458,-1.74616 -0.77606,-0.48504 -2.03718,-0.72756 l -3.58931,-0.72757 q -1.40663,-0.29102 -2.66774,-0.72756 -1.26111,-0.48504 -2.2312,-1.21261 -0.92158,-0.77607 -1.50363,-1.94017 -0.53355,-1.1641 -0.53355,-2.86175 0,-2.08569 0.82457,-3.63783 0.87308,-1.55213 2.37671,-2.61923 1.50364,-1.06709 3.54082,-1.60064 2.03718,-0.53355 4.41389,-0.53355 3.3468,0 5.86902,0.97009 2.57073,0.97008 3.88034,2.66773 l -3.49231,3.49231 q -0.82457,-1.06709 -2.47372,-1.84316 -1.60064,-0.82457 -4.02585,-0.82457 -2.32821,0 -3.63782,0.82457 -1.26112,0.82457 -1.26112,2.37671 0,1.26111 0.77607,1.74616 0.82458,0.48504 2.08569,0.72756 l 3.68632,0.77607 q 1.45513,0.29103 2.71624,0.77607 1.26112,0.43654 2.1827,1.21261 0.92158,0.72756 1.45513,1.84316 0.53354,1.1156 0.53354,2.76474 0,2.03718 -0.87307,3.63783 -0.82458,1.60064 -2.37671,2.76474 -1.55214,1.1156 -3.78334,1.69765 -2.18269,0.58205 -4.89893,0.58205 z"
       id="text2"
       aria-label="tools" />
  </g>
</svg>
